<svg xmlns="http://www.w3.org/2000/svg" width="432" height="432" viewBox="0 0 432 432">
  <defs>
    <linearGradient id="sky" x1="0" y1="0" x2="0" y2="1">
      <stop offset="0.00" stop-color="#0d0420"/>
      <stop offset="0.42" stop-color="#2d1155"/>
      <stop offset="0.75" stop-color="#7d1f83"/>
      <stop offset="1.00" stop-color="#ff4d9d"/>
    </linearGradient>
    <linearGradient id="sun" x1="0" y1="0" x2="0" y2="1">
      <stop offset="0.00" stop-color="#ffe95c"/>
      <stop offset="0.42" stop-color="#ff9a4d"/>
      <stop offset="1.00" stop-color="#ff2d95"/>
    </linearGradient>
    <linearGradient id="ground" x1="0" y1="0" x2="0" y2="1">
      <stop offset="0.00" stop-color="#3a0f52"/>
      <stop offset="1.00" stop-color="#080213"/>
    </linearGradient>
    <radialGradient id="ballBody" cx="0.34" cy="0.28" r="0.88">
      <stop offset="0.00" stop-color="#5b3488"/>
      <stop offset="0.42" stop-color="#2a1450"/>
      <stop offset="1.00" stop-color="#0b0518"/>
    </radialGradient>
    <linearGradient id="gloss" x1="0" y1="0" x2="0" y2="1">
      <stop offset="0.00" stop-color="#ffffff" stop-opacity="0.90"/>
      <stop offset="1.00" stop-color="#8be9ff" stop-opacity="0.00"/>
    </linearGradient>
    <clipPath id="skyClip">
      <rect x="0" y="0" width="432" height="256"/>
    </clipPath>
    <clipPath id="groundClip">
      <rect x="0" y="256" width="432" height="176"/>
    </clipPath>
    <clipPath id="sunClip">
      <circle cx="216.0" cy="256" r="155"/>
    </clipPath>
    <clipPath id="ballClip">
      <circle cx="216.0" cy="196" r="100"/>
    </clipPath>
  </defs>
  <circle cx="216.0" cy="196" r="111" fill="#ff2d95" opacity="0.28"/>
  <circle cx="216.0" cy="196" r="105" fill="#00e5ff" opacity="0.22"/>
  <circle cx="216.0" cy="196" r="100" fill="url(#ballBody)"/>
  <g clip-path="url(#ballClip)">
    <circle cx="239.0" cy="173" r="98" fill="none" stroke="#ff4dae" stroke-width="8" opacity="0.8"/>
    <circle cx="195.0" cy="217" r="97" fill="none" stroke="#00e5ff" stroke-width="9" opacity="0.85"/>
  </g>
  <circle cx="216.0" cy="196" r="100" fill="none" stroke="#07030f" stroke-width="6"/>
  <ellipse cx="178.0" cy="151" rx="29" ry="19" fill="url(#gloss)" transform="rotate(-28 178.0 151)"/>
  <g transform="rotate(-18 190.0 192)">
    <ellipse cx="190.0" cy="192" rx="15" ry="13" fill="#05020b" stroke="#00e5ff" stroke-width="2.5" stroke-opacity="0.6"/>
    <ellipse cx="188.0" cy="190" rx="10" ry="8" fill="#241046" opacity="0.85"/>
  </g>
  <g transform="rotate(-18 221.0 181)">
    <ellipse cx="221.0" cy="181" rx="14" ry="12" fill="#05020b" stroke="#00e5ff" stroke-width="2.5" stroke-opacity="0.6"/>
    <ellipse cx="219.0" cy="179" rx="9" ry="7" fill="#241046" opacity="0.85"/>
  </g>
  <g transform="rotate(-18 228.0 216)">
    <ellipse cx="228.0" cy="216" rx="13" ry="11" fill="#05020b" stroke="#00e5ff" stroke-width="2.5" stroke-opacity="0.6"/>
    <ellipse cx="226.0" cy="214" rx="8" ry="6" fill="#241046" opacity="0.85"/>
  </g>
</svg>
